<svg width="404" height="64" viewBox="0 0 404 64" fill="none" xmlns="http://www.w3.org/2000/svg">
<g filter="url(#filter0_b_102_686)">
<rect width="414" height="64" fill="white" fill-opacity="0.25"/>
<line y1="63.5" x2="414" y2="63.5" stroke="black" stroke-opacity="0.5"/>
<path d="M25.3164 41L21.8125 28.6602H21.707C21.7383 28.9805 21.7695 29.4141 21.8008 29.9609C21.8398 30.5078 21.875 31.0977 21.9062 31.7305C21.9375 32.3633 21.9531 32.9727 21.9531 33.5586V41H17.8516V23.8672H24.0156L27.5898 36.0312H27.6836L31.1875 23.8672H37.3633V41H33.1094V33.4883C33.1094 32.9492 33.1172 32.3711 33.1328 31.7539C33.1562 31.1289 33.1797 30.543 33.2031 29.9961C33.2344 29.4414 33.2617 29.0039 33.2852 28.6836H33.1797L29.7227 41H25.3164ZM42.9906 27.7227V41H38.4086V27.7227H42.9906ZM40.7172 22.3789C41.3734 22.3789 41.9438 22.5156 42.4281 22.7891C42.9203 23.0625 43.1664 23.6055 43.1664 24.418C43.1664 25.207 42.9203 25.7422 42.4281 26.0234C41.9438 26.2969 41.3734 26.4336 40.7172 26.4336C40.0453 26.4336 39.4711 26.2969 38.9945 26.0234C38.5258 25.7422 38.2914 25.207 38.2914 24.418C38.2914 23.6055 38.5258 23.0625 38.9945 22.7891C39.4711 22.5156 40.0453 22.3789 40.7172 22.3789ZM53.9852 41H44.6219V23.8672H53.9852V24.957H45.8289V31.4492H53.5281V32.5391H45.8289V39.9102H53.9852V41ZM60.2922 41.2344C59.0266 41.2344 57.9562 40.9727 57.0812 40.4492C56.2141 39.918 55.5578 39.1641 55.1125 38.1875C54.675 37.2031 54.4562 36.0391 54.4562 34.6953C54.4562 33.2969 54.7102 32.1016 55.218 31.1094C55.7258 30.1094 56.4406 29.3438 57.3625 28.8125C58.2844 28.2812 59.3664 28.0156 60.6086 28.0156C61.218 28.0156 61.7844 28.0703 62.3078 28.1797C62.8312 28.2891 63.3039 28.4414 63.7258 28.6367L63.4094 29.6797C62.9719 29.4844 62.507 29.3359 62.0148 29.2344C61.5227 29.1328 61.05 29.082 60.5969 29.082C59.55 29.082 58.6594 29.3125 57.925 29.7734C57.1984 30.2266 56.6398 30.875 56.2492 31.7188C55.8664 32.5547 55.675 33.543 55.675 34.6836C55.675 35.7539 55.8391 36.7031 56.1672 37.5312C56.4953 38.3516 56.9992 39 57.6789 39.4766C58.3586 39.9453 59.2297 40.1797 60.2922 40.1797C60.9094 40.1797 61.4953 40.1172 62.05 39.9922C62.6125 39.8672 63.1242 39.707 63.5852 39.5117V40.5898C63.1711 40.7773 62.6906 40.9297 62.1437 41.0469C61.6047 41.1719 60.9875 41.2344 60.2922 41.2344ZM74.7672 34.6133C74.7672 35.5977 74.6461 36.4961 74.4039 37.3086C74.1617 38.1133 73.8023 38.8086 73.3258 39.3945C72.8492 39.9805 72.2555 40.4336 71.5445 40.7539C70.8414 41.0742 70.0211 41.2344 69.0836 41.2344C68.193 41.2344 67.4 41.0781 66.7047 40.7656C66.0094 40.4453 65.4195 39.9922 64.9352 39.4062C64.4586 38.8203 64.0953 38.125 63.8453 37.3203C63.5953 36.5078 63.4703 35.6055 63.4703 34.6133C63.4703 33.2461 63.6969 32.0703 64.15 31.0859C64.6109 30.0938 65.2672 29.3359 66.1188 28.8125C66.9781 28.2812 68.0055 28.0156 69.2008 28.0156C70.4352 28.0156 71.4625 28.2969 72.2828 28.8594C73.1109 29.4141 73.732 30.1875 74.1461 31.1797C74.5602 32.1719 74.7672 33.3164 74.7672 34.6133ZM64.6891 34.6133C64.6891 35.7305 64.8492 36.707 65.1695 37.543C65.4898 38.3789 65.9742 39.0312 66.6227 39.5C67.2789 39.9688 68.107 40.2031 69.107 40.2031C70.1305 40.2031 70.9703 39.9688 71.6266 39.5C72.2828 39.0312 72.7672 38.375 73.0797 37.5312C73.3922 36.6875 73.5484 35.7148 73.5484 34.6133C73.5484 33.543 73.4 32.5898 73.1031 31.7539C72.8063 30.918 72.3375 30.2617 71.6969 29.7852C71.0563 29.3008 70.2203 29.0586 69.1891 29.0586C67.7125 29.0586 66.5914 29.5508 65.8258 30.5352C65.068 31.5195 64.6891 32.8789 64.6891 34.6133ZM89.0312 28.0156C90.2578 28.0156 91.2266 28.3711 91.9375 29.082C92.6484 29.793 93.0039 30.9141 93.0039 32.4453V41H91.8438V32.4922C91.8438 31.3125 91.5742 30.4453 91.0352 29.8906C90.4961 29.3359 89.7852 29.0586 88.9023 29.0586C87.6914 29.0586 86.7422 29.4141 86.0547 30.125C85.375 30.8281 85.0352 31.9375 85.0352 33.4531V41H83.8633V32.4922C83.8633 31.7031 83.7383 31.0586 83.4883 30.5586C83.2461 30.0508 82.9062 29.6758 82.4688 29.4336C82.0312 29.1836 81.5156 29.0586 80.9219 29.0586C80.1328 29.0586 79.4492 29.2227 78.8711 29.5508C78.293 29.8711 77.8477 30.3711 77.5352 31.0508C77.2227 31.7227 77.0664 32.5781 77.0664 33.6172V41H75.8828V28.2617H76.8438L77.0195 30.3477H77.0898C77.3008 29.9336 77.582 29.5508 77.9336 29.1992C78.2852 28.8477 78.7188 28.5625 79.2344 28.3438C79.7578 28.125 80.3711 28.0156 81.0742 28.0156C81.9883 28.0156 82.7617 28.2227 83.3945 28.6367C84.0352 29.043 84.4805 29.6484 84.7305 30.4531H84.8125C85.1562 29.6875 85.6875 29.0898 86.4062 28.6602C87.1328 28.2305 88.0078 28.0156 89.0312 28.0156ZM107.842 28.0156C109.069 28.0156 110.037 28.3711 110.748 29.082C111.459 29.793 111.815 30.9141 111.815 32.4453V41H110.655V32.4922C110.655 31.3125 110.385 30.4453 109.846 29.8906C109.307 29.3359 108.596 29.0586 107.713 29.0586C106.502 29.0586 105.553 29.4141 104.866 30.125C104.186 30.8281 103.846 31.9375 103.846 33.4531V41H102.674V32.4922C102.674 31.7031 102.549 31.0586 102.299 30.5586C102.057 30.0508 101.717 29.6758 101.28 29.4336C100.842 29.1836 100.327 29.0586 99.7328 29.0586C98.9437 29.0586 98.2602 29.2227 97.682 29.5508C97.1039 29.8711 96.6586 30.3711 96.3461 31.0508C96.0336 31.7227 95.8773 32.5781 95.8773 33.6172V41H94.6937V28.2617H95.6547L95.8305 30.3477H95.9008C96.1117 29.9336 96.393 29.5508 96.7445 29.1992C97.0961 28.8477 97.5297 28.5625 98.0453 28.3438C98.5687 28.125 99.182 28.0156 99.8852 28.0156C100.799 28.0156 101.573 28.2227 102.205 28.6367C102.846 29.043 103.291 29.6484 103.541 30.4531H103.623C103.967 29.6875 104.498 29.0898 105.217 28.6602C105.944 28.2305 106.819 28.0156 107.842 28.0156ZM118.333 28.0156C119.419 28.0156 120.321 28.2695 121.04 28.7773C121.766 29.2852 122.305 29.9805 122.657 30.8633C123.016 31.7461 123.196 32.7578 123.196 33.8984V34.7539H113.997C113.997 36.5039 114.399 37.8477 115.204 38.7852C116.016 39.7227 117.177 40.1914 118.684 40.1914C119.473 40.1914 120.157 40.1289 120.735 40.0039C121.321 39.8711 121.97 39.6484 122.68 39.3359V40.4258C122.055 40.707 121.43 40.9102 120.805 41.0352C120.18 41.168 119.462 41.2344 118.649 41.2344C117.36 41.2344 116.278 40.9688 115.403 40.4375C114.536 39.8984 113.88 39.1406 113.434 38.1641C112.997 37.1875 112.778 36.0469 112.778 34.7422C112.778 33.4688 112.989 32.3242 113.411 31.3086C113.841 30.293 114.466 29.4922 115.286 28.9062C116.114 28.3125 117.13 28.0156 118.333 28.0156ZM118.321 29.0352C117.102 29.0352 116.114 29.4414 115.356 30.2539C114.606 31.0586 114.165 32.2227 114.032 33.7461H121.966C121.966 32.8164 121.833 31.9961 121.567 31.2852C121.302 30.5742 120.899 30.0234 120.36 29.6328C119.829 29.2344 119.149 29.0352 118.321 29.0352ZM129.374 28.0391C129.71 28.0391 130.027 28.0586 130.323 28.0977C130.62 28.1367 130.898 28.1914 131.155 28.2617L130.968 29.3516C130.71 29.2812 130.448 29.2305 130.183 29.1992C129.917 29.1602 129.632 29.1406 129.327 29.1406C128.726 29.1406 128.187 29.2539 127.71 29.4805C127.241 29.707 126.843 30.0312 126.515 30.4531C126.187 30.875 125.937 31.3828 125.765 31.9766C125.593 32.5703 125.507 33.2344 125.507 33.9688V41H124.312V28.2617H125.331L125.448 30.6641H125.519C125.714 30.1719 125.988 29.7305 126.339 29.3398C126.698 28.9414 127.132 28.625 127.64 28.3906C128.148 28.1562 128.726 28.0391 129.374 28.0391ZM136.361 41.2344C135.095 41.2344 134.025 40.9727 133.15 40.4492C132.283 39.918 131.627 39.1641 131.181 38.1875C130.744 37.2031 130.525 36.0391 130.525 34.6953C130.525 33.2969 130.779 32.1016 131.287 31.1094C131.795 30.1094 132.509 29.3438 133.431 28.8125C134.353 28.2812 135.435 28.0156 136.677 28.0156C137.287 28.0156 137.853 28.0703 138.377 28.1797C138.9 28.2891 139.373 28.4414 139.795 28.6367L139.478 29.6797C139.041 29.4844 138.576 29.3359 138.084 29.2344C137.591 29.1328 137.119 29.082 136.666 29.082C135.619 29.082 134.728 29.3125 133.994 29.7734C133.267 30.2266 132.709 30.875 132.318 31.7188C131.935 32.5547 131.744 33.543 131.744 34.6836C131.744 35.7539 131.908 36.7031 132.236 37.5312C132.564 38.3516 133.068 39 133.748 39.4766C134.427 39.9453 135.298 40.1797 136.361 40.1797C136.978 40.1797 137.564 40.1172 138.119 39.9922C138.681 39.8672 139.193 39.707 139.654 39.5117V40.5898C139.24 40.7773 138.759 40.9297 138.213 41.0469C137.673 41.1719 137.056 41.2344 136.361 41.2344ZM145.094 28.0156C146.18 28.0156 147.082 28.2695 147.801 28.7773C148.527 29.2852 149.066 29.9805 149.418 30.8633C149.777 31.7461 149.957 32.7578 149.957 33.8984V34.7539H140.758C140.758 36.5039 141.16 37.8477 141.965 38.7852C142.777 39.7227 143.938 40.1914 145.445 40.1914C146.234 40.1914 146.918 40.1289 147.496 40.0039C148.082 39.8711 148.73 39.6484 149.441 39.3359V40.4258C148.816 40.707 148.191 40.9102 147.566 41.0352C146.941 41.168 146.223 41.2344 145.41 41.2344C144.121 41.2344 143.039 40.9688 142.164 40.4375C141.297 39.8984 140.641 39.1406 140.195 38.1641C139.758 37.1875 139.539 36.0469 139.539 34.7422C139.539 33.4688 139.75 32.3242 140.172 31.3086C140.602 30.293 141.227 29.4922 142.047 28.9062C142.875 28.3125 143.891 28.0156 145.094 28.0156ZM145.082 29.0352C143.863 29.0352 142.875 29.4414 142.117 30.2539C141.367 31.0586 140.926 32.2227 140.793 33.7461H148.727C148.727 32.8164 148.594 31.9961 148.328 31.2852C148.062 30.5742 147.66 30.0234 147.121 29.6328C146.59 29.2344 145.91 29.0352 145.082 29.0352Z" fill="#0CB093"/>
</g>
<defs>
<filter id="filter0_b_102_686" x="-4" y="-4" width="422" height="72" filterUnits="userSpaceOnUse" color-interpolation-filters="sRGB">
<feFlood flood-opacity="0" result="BackgroundImageFix"/>
<feGaussianBlur in="BackgroundImage" stdDeviation="2"/>
<feComposite in2="SourceAlpha" operator="in" result="effect1_backgroundBlur_102_686"/>
<feBlend mode="normal" in="SourceGraphic" in2="effect1_backgroundBlur_102_686" result="shape"/>
</filter>
</defs>
</svg>
