<svg width="133" height="20" viewBox="0 0 133 20" fill="none" xmlns="http://www.w3.org/2000/svg">
<path d="M8.31641 19L4.8125 6.66016H4.70703C4.73828 6.98047 4.76953 7.41406 4.80078 7.96094C4.83984 8.50781 4.875 9.09766 4.90625 9.73047C4.9375 10.3633 4.95312 10.9727 4.95312 11.5586V19H0.851562V1.86719H7.01562L10.5898 14.0312H10.6836L14.1875 1.86719H20.3633V19H16.1094V11.4883C16.1094 10.9492 16.1172 10.3711 16.1328 9.75391C16.1562 9.12891 16.1797 8.54297 16.2031 7.99609C16.2344 7.44141 16.2617 7.00391 16.2852 6.68359H16.1797L12.7227 19H8.31641ZM25.9906 5.72266V19H21.4086V5.72266H25.9906ZM23.7172 0.378906C24.3734 0.378906 24.9438 0.515625 25.4281 0.789062C25.9203 1.0625 26.1664 1.60547 26.1664 2.41797C26.1664 3.20703 25.9203 3.74219 25.4281 4.02344C24.9438 4.29688 24.3734 4.43359 23.7172 4.43359C23.0453 4.43359 22.4711 4.29688 21.9945 4.02344C21.5258 3.74219 21.2914 3.20703 21.2914 2.41797C21.2914 1.60547 21.5258 1.0625 21.9945 0.789062C22.4711 0.515625 23.0453 0.378906 23.7172 0.378906ZM36.9852 19H27.6219V1.86719H36.9852V2.95703H28.8289V9.44922H36.5281V10.5391H28.8289V17.9102H36.9852V19ZM43.2922 19.2344C42.0266 19.2344 40.9562 18.9727 40.0812 18.4492C39.2141 17.918 38.5578 17.1641 38.1125 16.1875C37.675 15.2031 37.4562 14.0391 37.4562 12.6953C37.4562 11.2969 37.7102 10.1016 38.218 9.10938C38.7258 8.10938 39.4406 7.34375 40.3625 6.8125C41.2844 6.28125 42.3664 6.01562 43.6086 6.01562C44.218 6.01562 44.7844 6.07031 45.3078 6.17969C45.8312 6.28906 46.3039 6.44141 46.7258 6.63672L46.4094 7.67969C45.9719 7.48438 45.507 7.33594 45.0148 7.23438C44.5227 7.13281 44.05 7.08203 43.5969 7.08203C42.55 7.08203 41.6594 7.3125 40.925 7.77344C40.1984 8.22656 39.6398 8.875 39.2492 9.71875C38.8664 10.5547 38.675 11.543 38.675 12.6836C38.675 13.7539 38.8391 14.7031 39.1672 15.5312C39.4953 16.3516 39.9992 17 40.6789 17.4766C41.3586 17.9453 42.2297 18.1797 43.2922 18.1797C43.9094 18.1797 44.4953 18.1172 45.05 17.9922C45.6125 17.8672 46.1242 17.707 46.5852 17.5117V18.5898C46.1711 18.7773 45.6906 18.9297 45.1437 19.0469C44.6047 19.1719 43.9875 19.2344 43.2922 19.2344ZM57.7672 12.6133C57.7672 13.5977 57.6461 14.4961 57.4039 15.3086C57.1617 16.1133 56.8023 16.8086 56.3258 17.3945C55.8492 17.9805 55.2555 18.4336 54.5445 18.7539C53.8414 19.0742 53.0211 19.2344 52.0836 19.2344C51.193 19.2344 50.4 19.0781 49.7047 18.7656C49.0094 18.4453 48.4195 17.9922 47.9352 17.4062C47.4586 16.8203 47.0953 16.125 46.8453 15.3203C46.5953 14.5078 46.4703 13.6055 46.4703 12.6133C46.4703 11.2461 46.6969 10.0703 47.15 9.08594C47.6109 8.09375 48.2672 7.33594 49.1188 6.8125C49.9781 6.28125 51.0055 6.01562 52.2008 6.01562C53.4352 6.01562 54.4625 6.29688 55.2828 6.85938C56.1109 7.41406 56.732 8.1875 57.1461 9.17969C57.5602 10.1719 57.7672 11.3164 57.7672 12.6133ZM47.6891 12.6133C47.6891 13.7305 47.8492 14.707 48.1695 15.543C48.4898 16.3789 48.9742 17.0312 49.6227 17.5C50.2789 17.9688 51.107 18.2031 52.107 18.2031C53.1305 18.2031 53.9703 17.9688 54.6266 17.5C55.2828 17.0312 55.7672 16.375 56.0797 15.5312C56.3922 14.6875 56.5484 13.7148 56.5484 12.6133C56.5484 11.543 56.4 10.5898 56.1031 9.75391C55.8063 8.91797 55.3375 8.26172 54.6969 7.78516C54.0563 7.30078 53.2203 7.05859 52.1891 7.05859C50.7125 7.05859 49.5914 7.55078 48.8258 8.53516C48.068 9.51953 47.6891 10.8789 47.6891 12.6133ZM72.0312 6.01562C73.2578 6.01562 74.2266 6.37109 74.9375 7.08203C75.6484 7.79297 76.0039 8.91406 76.0039 10.4453V19H74.8438V10.4922C74.8438 9.3125 74.5742 8.44531 74.0352 7.89062C73.4961 7.33594 72.7852 7.05859 71.9023 7.05859C70.6914 7.05859 69.7422 7.41406 69.0547 8.125C68.375 8.82812 68.0352 9.9375 68.0352 11.4531V19H66.8633V10.4922C66.8633 9.70312 66.7383 9.05859 66.4883 8.55859C66.2461 8.05078 65.9062 7.67578 65.4688 7.43359C65.0312 7.18359 64.5156 7.05859 63.9219 7.05859C63.1328 7.05859 62.4492 7.22266 61.8711 7.55078C61.293 7.87109 60.8477 8.37109 60.5352 9.05078C60.2227 9.72266 60.0664 10.5781 60.0664 11.6172V19H58.8828V6.26172H59.8438L60.0195 8.34766H60.0898C60.3008 7.93359 60.582 7.55078 60.9336 7.19922C61.2852 6.84766 61.7188 6.5625 62.2344 6.34375C62.7578 6.125 63.3711 6.01562 64.0742 6.01562C64.9883 6.01562 65.7617 6.22266 66.3945 6.63672C67.0352 7.04297 67.4805 7.64844 67.7305 8.45312H67.8125C68.1562 7.6875 68.6875 7.08984 69.4062 6.66016C70.1328 6.23047 71.0078 6.01562 72.0312 6.01562ZM90.8422 6.01562C92.0687 6.01562 93.0375 6.37109 93.7484 7.08203C94.4594 7.79297 94.8148 8.91406 94.8148 10.4453V19H93.6547V10.4922C93.6547 9.3125 93.3852 8.44531 92.8461 7.89062C92.307 7.33594 91.5961 7.05859 90.7133 7.05859C89.5023 7.05859 88.5531 7.41406 87.8656 8.125C87.1859 8.82812 86.8461 9.9375 86.8461 11.4531V19H85.6742V10.4922C85.6742 9.70312 85.5492 9.05859 85.2992 8.55859C85.057 8.05078 84.7172 7.67578 84.2797 7.43359C83.8422 7.18359 83.3266 7.05859 82.7328 7.05859C81.9437 7.05859 81.2602 7.22266 80.682 7.55078C80.1039 7.87109 79.6586 8.37109 79.3461 9.05078C79.0336 9.72266 78.8773 10.5781 78.8773 11.6172V19H77.6937V6.26172H78.6547L78.8305 8.34766H78.9008C79.1117 7.93359 79.393 7.55078 79.7445 7.19922C80.0961 6.84766 80.5297 6.5625 81.0453 6.34375C81.5687 6.125 82.182 6.01562 82.8852 6.01562C83.7992 6.01562 84.5727 6.22266 85.2055 6.63672C85.8461 7.04297 86.2914 7.64844 86.5414 8.45312H86.6234C86.9672 7.6875 87.4984 7.08984 88.2172 6.66016C88.9437 6.23047 89.8187 6.01562 90.8422 6.01562ZM101.333 6.01562C102.419 6.01562 103.321 6.26953 104.04 6.77734C104.766 7.28516 105.305 7.98047 105.657 8.86328C106.016 9.74609 106.196 10.7578 106.196 11.8984V12.7539H96.9969C96.9969 14.5039 97.3992 15.8477 98.2039 16.7852C99.0164 17.7227 100.177 18.1914 101.684 18.1914C102.473 18.1914 103.157 18.1289 103.735 18.0039C104.321 17.8711 104.97 17.6484 105.68 17.3359V18.4258C105.055 18.707 104.43 18.9102 103.805 19.0352C103.18 19.168 102.462 19.2344 101.649 19.2344C100.36 19.2344 99.2781 18.9688 98.4031 18.4375C97.5359 17.8984 96.8797 17.1406 96.4344 16.1641C95.9969 15.1875 95.7781 14.0469 95.7781 12.7422C95.7781 11.4688 95.9891 10.3242 96.4109 9.30859C96.8406 8.29297 97.4656 7.49219 98.2859 6.90625C99.1141 6.3125 100.13 6.01562 101.333 6.01562ZM101.321 7.03516C100.102 7.03516 99.1141 7.44141 98.3562 8.25391C97.6062 9.05859 97.1648 10.2227 97.032 11.7461H104.966C104.966 10.8164 104.833 9.99609 104.567 9.28516C104.302 8.57422 103.899 8.02344 103.36 7.63281C102.829 7.23438 102.149 7.03516 101.321 7.03516ZM112.374 6.03906C112.71 6.03906 113.027 6.05859 113.323 6.09766C113.62 6.13672 113.898 6.19141 114.155 6.26172L113.968 7.35156C113.71 7.28125 113.448 7.23047 113.183 7.19922C112.917 7.16016 112.632 7.14062 112.327 7.14062C111.726 7.14062 111.187 7.25391 110.71 7.48047C110.241 7.70703 109.843 8.03125 109.515 8.45312C109.187 8.875 108.937 9.38281 108.765 9.97656C108.593 10.5703 108.507 11.2344 108.507 11.9688V19H107.312V6.26172H108.331L108.448 8.66406H108.519C108.714 8.17188 108.988 7.73047 109.339 7.33984C109.698 6.94141 110.132 6.625 110.64 6.39062C111.148 6.15625 111.726 6.03906 112.374 6.03906ZM119.361 19.2344C118.095 19.2344 117.025 18.9727 116.15 18.4492C115.283 17.918 114.627 17.1641 114.181 16.1875C113.744 15.2031 113.525 14.0391 113.525 12.6953C113.525 11.2969 113.779 10.1016 114.287 9.10938C114.795 8.10938 115.509 7.34375 116.431 6.8125C117.353 6.28125 118.435 6.01562 119.677 6.01562C120.287 6.01562 120.853 6.07031 121.377 6.17969C121.9 6.28906 122.373 6.44141 122.795 6.63672L122.478 7.67969C122.041 7.48438 121.576 7.33594 121.084 7.23438C120.591 7.13281 120.119 7.08203 119.666 7.08203C118.619 7.08203 117.728 7.3125 116.994 7.77344C116.267 8.22656 115.709 8.875 115.318 9.71875C114.935 10.5547 114.744 11.543 114.744 12.6836C114.744 13.7539 114.908 14.7031 115.236 15.5312C115.564 16.3516 116.068 17 116.748 17.4766C117.427 17.9453 118.298 18.1797 119.361 18.1797C119.978 18.1797 120.564 18.1172 121.119 17.9922C121.681 17.8672 122.193 17.707 122.654 17.5117V18.5898C122.24 18.7773 121.759 18.9297 121.213 19.0469C120.673 19.1719 120.056 19.2344 119.361 19.2344ZM128.094 6.01562C129.18 6.01562 130.082 6.26953 130.801 6.77734C131.527 7.28516 132.066 7.98047 132.418 8.86328C132.777 9.74609 132.957 10.7578 132.957 11.8984V12.7539H123.758C123.758 14.5039 124.16 15.8477 124.965 16.7852C125.777 17.7227 126.938 18.1914 128.445 18.1914C129.234 18.1914 129.918 18.1289 130.496 18.0039C131.082 17.8711 131.73 17.6484 132.441 17.3359V18.4258C131.816 18.707 131.191 18.9102 130.566 19.0352C129.941 19.168 129.223 19.2344 128.41 19.2344C127.121 19.2344 126.039 18.9688 125.164 18.4375C124.297 17.8984 123.641 17.1406 123.195 16.1641C122.758 15.1875 122.539 14.0469 122.539 12.7422C122.539 11.4688 122.75 10.3242 123.172 9.30859C123.602 8.29297 124.227 7.49219 125.047 6.90625C125.875 6.3125 126.891 6.01562 128.094 6.01562ZM128.082 7.03516C126.863 7.03516 125.875 7.44141 125.117 8.25391C124.367 9.05859 123.926 10.2227 123.793 11.7461H131.727C131.727 10.8164 131.594 9.99609 131.328 9.28516C131.062 8.57422 130.66 8.02344 130.121 7.63281C129.59 7.23438 128.91 7.03516 128.082 7.03516Z" fill="#0CB093"/>
</svg>
